# xmcd
#
# Track frame offsets:
#	150
#	16880
#	30570
#	47270
#	69598
#	86915
#	107843
#	121978
#	141405
#	186535
#	200998
#	215658
#	227438
#	256668
#
# Disc length: 3640 seconds
#
# Revision: 0
# Processed by: cddbd v1.5.1PL0 Copyright (c) Steve Scherf et al.
# Submitted via: EasyCDDAExtractor 4.6.9.1
#
DISCID=ca0e360e
DTITLE=Memphis Slim - Travelling with the blues
DYEAR=1992
DGENRE=blues
TTITLE0=Memphis Boogie
TTITLE1=St. Louis  Boogie
TTITLE2=Santa Fee Blues
TTITLE3=Chicago, New home of the blues
TTITLE4=Chicago House Rent Party Blues
TTITLE5=Arkansas Road House Blues
TTITLE6=Midnight Jump
TTITLE7=Goodbye Blues
TTITLE8=Reminiscin' With the Blues
TTITLE9=Good Rockin' Blues
TTITLE10=Blues Confession
TTITLE11=Boogie Woogie
TTITLE12=Blues Made Up
TTITLE13=Worries All the Time
EXTD=
EXTT0=
EXTT1=
EXTT2=
EXTT3=
EXTT4=
EXTT5=
EXTT6=
EXTT7=
EXTT8=
EXTT9=
EXTT10=
EXTT11=
EXTT12=
EXTT13=
PLAYORDER=
